Coordinates
version=1
nRows=16
nColumns=42
inDegrees=yes

Units are S.I. units (second, meters, Newtons, ...)
If the header above contains a line with 'inDegrees', this indicates whether rotational values are in degrees (yes) or radians (no).

endheader
time	pelvis_tilt	pelvis_list	pelvis_rotation	pelvis_tx	pelvis_ty	pelvis_tz	hip_flexion_r	hip_adduction_r	hip_rotation_r	knee_angle_r	knee_adduction_r	knee_angle_r_beta	ankle_angle_r	subtalar_angle_r	mtp_angle_r	hip_flexion_l	hip_adduction_l	hip_rotation_l	knee_angle_l	knee_adduction_l	knee_angle_l_beta	ankle_angle_l	subtalar_angle_l	mtp_angle_l	lumbar_extension	lumbar_bending	lumbar_rotation	arm_flex_r	arm_add_r	arm_rot_r	elbow_flex_r	pro_sup_r	wrist_flex_r	wrist_dev_r	arm_flex_l	arm_add_l	arm_rot_l	elbow_flex_l	pro_sup_l	wrist_flex_l	wrist_dev_l
      1.17000000	     16.20073320	      4.01690944	      3.87734426	     -0.51857962	      0.92427014	     -0.29891116	      8.13879070	     -7.79980029	    -38.81630727	     37.53637815	     -9.98420663	      0.65513339	     13.73480852	     30.66944526	     -7.59087901	    -11.56904737	      5.77329056	     -2.36905977	     60.28595117	     -6.50821382	      1.05218834	      4.19043246	     -7.14810676	     -7.59087901	    -35.20650233	      1.79793163	     -1.49940149	      3.50153082	    -10.24721099	     -2.94692044	     25.04263666	     90.00000001	      0.00000000	      0.00000000	     16.65081173	    -17.55925366	     -3.54710708	     51.94882253	     90.00000001	      0.00000000	      0.00000000
      1.18000000	     15.93782499	      3.86027412	      3.78039422	     -0.51054070	      0.92466776	     -0.29752028	      7.93419943	     -7.38680027	    -38.84363872	     37.49516697	    -10.28908987	      0.65441412	     14.60759922	     31.53542879	     -7.58539999	     -9.68788439	      5.56334354	     -0.52878742	     63.30734552	     -4.47687369	      1.10492162	      2.64423368	    -11.96611106	     -7.58539999	    -34.89545648	      1.86516677	     -1.38299706	      4.70147866	    -10.53174158	     -2.52627728	     25.27934241	     90.00000001	      0.00000000	      0.00000000	     15.44534386	    -17.27010852	     -4.61637430	     51.89368341	     90.00000001	      0.00000000	      0.00000000
      1.19000000	     16.18374623	      3.82015597	      3.66218483	     -0.50242213	      0.92564139	     -0.29621703	      7.04809244	     -7.19430791	    -38.79442129	     37.52761195	    -10.18303164	      0.65498039	     14.90200823	     31.32666553	     -7.58423202	     -8.42838857	      5.43478798	     -0.49265095	     65.58358522	     -4.20869454	      1.14464950	      2.77053302	    -12.15450087	     -7.58423202	    -35.16496203	      1.83343429	     -1.21647337	      5.83662680	    -10.82334446	     -2.48972248	     25.86675640	     90.00000001	      0.00000000	      0.00000000	     14.56639600	    -17.23006749	     -4.70619350	     51.57466428	     90.00000001	      0.00000000	      0.00000000
      1.20000000	     15.87657263	      3.76840528	      3.59051568	     -0.49480114	      0.92588106	     -0.29488800	      6.91913657	     -6.91832443	    -38.75145037	     37.54709714	    -10.43600790	      0.65532047	     15.81040001	     31.85196315	     -7.58029490	     -6.44907637	      5.36227715	      1.06509713	     67.91153782	     -2.48680366	      1.18527993	      2.84602459	    -14.86717746	     -7.58029490	    -34.90323888	      1.74991867	     -1.13242138	      7.01656000	    -11.08446547	     -2.19938164	     26.28675567	     90.00000001	      0.00000000	      0.00000000	     13.52255368	    -16.90902029	     -5.59512416	     51.21300902	     90.00000001	      0.00000000	      0.00000000
      1.21000000	     15.89098662	      3.70418995	      3.52793199	     -0.48713449	      0.92655798	     -0.29357918	      6.32375398	     -6.63878601	    -38.66193429	     37.46576597	    -10.42781629	      0.65390097	     16.24018082	     31.73808119	     -7.57893397	     -4.80993162	      5.21686222	      1.14955230	     69.68055625	     -2.19721581	      1.21615513	      3.60086910	    -15.35944788	     -7.57893397	    -34.99819714	      1.68835745	     -1.07687114	      8.23596219	    -11.32182154	     -2.14286991	     26.90523965	     90.00000001	      0.00000000	      0.00000000	     12.55184467	    -16.84318400	     -5.77794766	     50.77267561	     90.00000001	      0.00000000	      0.00000000
      1.22000000	     15.69743389	      3.72087136	      3.50488670	     -0.47984328	      0.92696135	     -0.29243528	      6.02785352	     -6.50119950	    -38.60702564	     37.51495180	    -10.49510369	      0.65475943	     16.94565925	     31.96838823	     -7.57559375	     -2.92444455	      5.27210818	      2.26563679	     71.17823212	     -1.08443030	      1.24229451	      4.46488105	    -16.29776461	     -7.57559375	    -34.93379572	      1.53806018	     -1.00448289	      9.42966678	    -11.59010656	     -1.97001568	     27.45469544	     90.00000001	      0.00000000	      0.00000000	     11.80739577	    -16.49635985	     -6.51916226	     50.16372611	     90.00000001	      0.00000000	      0.00000000
      1.23000000	     15.57765682	      3.68242376	      3.48906595	     -0.47256630	      0.92747566	     -0.29127149	      5.59150762	     -6.26662801	    -38.51326794	     37.42455710	    -10.48958735	      0.65318174	     17.44859456	     31.92767447	     -7.57373066	     -1.08512326	      5.24186202	      2.56893987	     72.26302644	     -0.75941989	      1.26122774	      5.53029833	    -16.63984039	     -7.57373066	    -34.95889584	      1.42850606	     -0.94020491	     10.64182489	    -11.83846722	     -1.91581521	     28.08791589	     90.00000001	      0.00000000	      0.00000000	     11.00808987	    -16.29357881	     -6.80856429	     49.57958851	     90.00000001	      0.00000000	      0.00000000
      1.24000000	     15.56626162	      3.66861069	      3.51343716	     -0.46534872	      0.92819190	     -0.29025385	      4.95972926	     -6.10526863	    -38.46588602	     37.27015896	    -10.33587781	      0.65048699	     17.75997826	     31.75042514	     -7.57274725	      0.62347408	      5.30130952	      2.73700143	     72.90378691	     -0.73959000	      1.27241112	      6.36509472	    -16.75395409	     -7.57274725	    -35.12041176	      1.31468594	     -1.00520347	     11.92694282	    -12.01865120	     -1.89868619	     28.77646203	     90.00000001	      0.00000000	      0.00000000	     10.12546677	    -16.20379380	     -6.92508893	     48.99579132	     90.00000001	      0.00000000	      0.00000000
      1.25000000	     15.27812820	      3.58894637	      3.51886932	     -0.45833424	      0.92845949	     -0.28918081	      4.70911090	     -5.85203113	    -38.43126416	     37.14804319	    -10.34672498	      0.64835566	     18.52367574	     32.05504079	     -7.57041686	      2.66269046	      5.27784347	      3.54266503	     73.31561294	     -0.01262040	      1.27959884	      7.65422752	    -16.92351008	     -7.57041686	    -34.99173294	      1.21112499	     -0.86996662	     13.05226023	    -12.29649682	     -1.87066436	     29.50555037	     90.00000001	      0.00000000	      0.00000000	      9.60110728	    -15.78703437	     -7.48070869	     47.85139270	     90.00000001	      0.00000000	      0.00000000
      1.26000000	     15.21043257	      3.52059593	      3.54160538	     -0.45114180	      0.92908252	     -0.28818305	      4.08865495	     -5.61472674	    -38.41965461	     36.85520067	    -10.18982707	      0.64324460	     18.78754700	     31.91014167	     -7.56938704	      4.39776886	      5.31419436	      3.66811673	     73.21851554	     -0.11225570	      1.27790417	      8.36013220	    -16.96238262	     -7.56938704	    -35.07253186	      1.10587684	     -0.90055429	     14.32426873	    -12.48878123	     -1.86978607	     30.24094332	     90.00000001	      0.00000000	      0.00000000	      8.78052572	    -15.62270448	     -7.59737710	     47.16574327	     90.00000001	      0.00000000	      0.00000000
      1.27000000	     15.03393224	      3.38986556	      3.56424115	     -0.44411234	      0.92950158	     -0.28732540	      3.62804112	     -5.33448054	    -38.48394106	     36.58529314	    -10.12538682	      0.63853382	     19.38323585	     32.45445571	     -7.56633800	      6.23564718	      5.31845951	      4.19511611	     72.83278047	      0.16271244	      1.27117182	      9.21643153	    -16.96848711	     -7.56633800	    -35.06109394	      1.09228816	     -0.73796688	     15.35856180	    -12.78732722	     -1.86583093	     31.22473839	     90.00000001	      0.00000000	      0.00000000	      8.46128182	    -15.11265254	     -8.24249751	     45.46361455	     90.00000001	      0.00000000	      0.00000000
      1.28000000	     14.93444028	      3.24998968	      3.59024814	     -0.43690152	      0.93000542	     -0.28644148	      2.99984335	     -5.01496135	    -38.50878052	     36.18056173	     -9.94654693	      0.63146993	     19.63717998	     32.29464926	     -7.56532129	      7.92282637	      5.32105281	      4.25838288	     72.05793389	     -0.08065183	      1.25764820	      9.72222175	    -16.92639418	     -7.56532129	    -35.10024999	      1.05386004	     -0.71890980	     16.57788660	    -12.97458921	     -1.86405960	     31.98323285	     90.00000001	      0.00000000	      0.00000000	      7.63995071	    -14.91387115	     -8.30175258	     44.77578759	     90.00000001	      0.00000000	      0.00000000
      1.29000000	     14.81573805	      3.07381518	      3.54095084	     -0.42977555	      0.93038416	     -0.28561900	      2.43518331	     -4.76754256	    -38.48189960	     35.93633216	     -9.59630946	      0.62720732	     19.76535469	     31.99639932	     -7.56468237	      9.57257439	      5.26406590	      4.32778750	     70.94103929	     -0.23200390	      1.23815471	      9.96903674	    -16.60997611	     -7.56468237	    -35.12056266	      1.02585786	     -0.44042849	     17.73154749	    -13.36454463	     -1.89793768	     32.61356807	     90.00000001	      0.00000000	      0.00000000	      6.92596209	    -14.56075508	     -8.24840415	     44.37112649	     90.00000001	      0.00000000	      0.00000000
      1.30000000	     14.78872709	      2.88899912	      3.57064473	     -0.42229006	      0.93088957	     -0.28483083	      1.64445240	     -4.35716329	    -38.69384316	     35.32403039	     -9.59865432	      0.61652064	     20.50925237	     33.22103424	     -7.56162542	     10.98940913	      5.25238690	      4.37686009	     69.53200374	     -0.58182325	      1.21356240	     10.35644220	    -16.78633827	     -7.56162542	    -35.14885045	      1.07051150	     -0.34300982	     18.55838598	    -13.62380152	     -1.76025145	     34.21397425	     90.00000001	      0.00000000	      0.00000000	      6.86674234	    -14.07496377	     -8.81798428	     41.53758856	     90.00000001	      0.00000000	      0.00000000
      1.31000000	     14.61187545	      2.64196736	      3.53774525	     -0.41499024	      0.93101746	     -0.28410422	      1.12079148	     -4.02616797	    -38.70954275	     35.02509347	     -9.26302165	      0.61130320	     20.61573900	     32.85281721	     -7.56101560	     12.54053917	      5.11352577	      4.40711857	     67.89878578	     -0.80493285	      1.18505737	     10.55828875	    -16.46298482	     -7.56101560	    -35.04688258	      1.12538911	     -0.10201139	     19.70131818	    -13.97193178	     -1.78275991	     34.83670367	     90.00000001	      0.00000000	      0.00000000	      6.04959480	    -13.72765378	     -8.77516676	     41.16927003	     90.00000001	      0.00000000	      0.00000000
      1.32000000	     14.78514234	      2.46442468	      3.54764943	     -0.40727705	      0.93168321	     -0.28330927	     -0.00566658	     -3.57774974	    -38.79485304	     34.21338709	     -9.09443454	      0.59713625	     21.20083686	     33.43451500	     -7.55955616	     13.50280616	      5.08205395	      4.14258540	     65.85380302	     -1.45963466	      1.14936569	     10.60476076	    -16.52604181	     -7.55955616	    -35.26130088	      1.13752537	     -0.12824316	     20.73899387	    -14.10069668	     -1.61350386	     36.06166905	     90.00000001	      0.00000000	      0.00000000	      5.46197978	    -13.47011841	     -8.93803576	     39.52126449	     90.00000001	      0.00000000	      0.00000000
